<mxfile host="Electron" agent="Mozilla/5.0 (Windows NT 10.0; Win64; x64) AppleWebKit/537.36 (KHTML, like Gecko) draw.io/28.1.2 Chrome/138.0.7204.243 Electron/37.4.0 Safari/537.36" version="28.1.2" pages="2">
  <diagram id="4CGwL2x9rJtixALOhgdv" name="solution with aws managed vpc">
    <mxGraphModel dx="1828" dy="1059" grid="0" gridSize="10" guides="1" tooltips="1" connect="1" arrows="1" fold="1" page="0" pageScale="1" pageWidth="850" pageHeight="1100" math="0" shadow="0">
      <root>
        <mxCell id="0" />
        <mxCell id="1" parent="0" />
        <mxCell id="aPgaUmDM9Z9FBOJ3SoaB-5" value="" style="rounded=0;whiteSpace=wrap;html=1;opacity=20;strokeWidth=6;gradientColor=none;gradientDirection=radial;movable=1;resizable=1;rotatable=1;deletable=1;editable=1;locked=0;connectable=1;fontSize=12;" parent="1" vertex="1">
          <mxGeometry x="-120" y="-37" width="1024" height="696" as="geometry" />
        </mxCell>
        <mxCell id="s66ka_y6fgx1tOAvkaPo-1" value="" style="rounded=0;whiteSpace=wrap;html=1;opacity=20;strokeWidth=5;gradientColor=none;gradientDirection=radial;movable=1;resizable=1;rotatable=1;deletable=1;editable=1;locked=0;connectable=1;fontSize=12;" parent="1" vertex="1">
          <mxGeometry x="-153" y="-122" width="1106" height="823" as="geometry" />
        </mxCell>
        <mxCell id="4jw6Mw9ZU-lq-y1VKLTo-1" value="" style="rounded=0;whiteSpace=wrap;html=1;opacity=20;strokeWidth=6;gradientColor=none;gradientDirection=radial;movable=1;resizable=1;rotatable=1;deletable=1;editable=1;locked=0;connectable=1;fontSize=12;" parent="1" vertex="1">
          <mxGeometry x="-136" y="-79" width="1069" height="752" as="geometry" />
        </mxCell>
        <mxCell id="LcURaPavpxgOXggEogJO-2" value="&lt;font style=&quot;font-size: 11px;&quot;&gt;VPC&lt;/font&gt;" style="points=[[0,0],[0.25,0],[0.5,0],[0.75,0],[1,0],[1,0.25],[1,0.5],[1,0.75],[1,1],[0.75,1],[0.5,1],[0.25,1],[0,1],[0,0.75],[0,0.5],[0,0.25]];outlineConnect=0;gradientColor=none;html=1;whiteSpace=wrap;fontSize=12;fontStyle=0;container=1;pointerEvents=0;collapsible=0;recursiveResize=0;shape=mxgraph.aws4.group;grIcon=mxgraph.aws4.group_vpc2;strokeColor=#8C4FFF;fillColor=none;verticalAlign=top;align=left;spacingLeft=30;fontColor=#AAB7B8;strokeWidth=4;" parent="1" vertex="1">
          <mxGeometry y="-2" width="881" height="636" as="geometry" />
        </mxCell>
        <mxCell id="bL8EN4vbK3xiG8M0gvX8-18" value="" style="edgeStyle=orthogonalEdgeStyle;html=1;endArrow=block;elbow=vertical;startArrow=none;endFill=1;strokeColor=light-dark(#545B64,#FFFFFF);rounded=0;flowAnimation=0;fontSize=12;" parent="LcURaPavpxgOXggEogJO-2" edge="1">
          <mxGeometry width="100" relative="1" as="geometry">
            <mxPoint x="-112" y="106" as="sourcePoint" />
            <mxPoint x="269" y="106.19999999999999" as="targetPoint" />
          </mxGeometry>
        </mxCell>
        <mxCell id="bL8EN4vbK3xiG8M0gvX8-71" value="" style="endArrow=classic;html=1;rounded=0;flowAnimation=0;fontSize=12;" parent="1" edge="1">
          <mxGeometry width="50" height="50" relative="1" as="geometry">
            <mxPoint x="661" y="186" as="sourcePoint" />
            <mxPoint x="539" y="282" as="targetPoint" />
            <Array as="points">
              <mxPoint x="661" y="282" />
            </Array>
          </mxGeometry>
        </mxCell>
        <mxCell id="bL8EN4vbK3xiG8M0gvX8-14" value="&lt;font&gt;recruiter action&lt;/font&gt;" style="text;strokeColor=none;align=center;fillColor=none;html=1;verticalAlign=middle;whiteSpace=wrap;rounded=0;fontSize=12;" parent="1" vertex="1">
          <mxGeometry x="106.00000000000011" y="70" width="104" height="30" as="geometry" />
        </mxCell>
        <mxCell id="bL8EN4vbK3xiG8M0gvX8-15" value="&lt;font&gt;Calls the S3 SDK and generates a pre-signed PUT url with content-type =application/pdf&lt;/font&gt;" style="text;strokeColor=none;align=center;fillColor=none;html=1;verticalAlign=middle;whiteSpace=wrap;rounded=0;fontSize=12;" parent="1" vertex="1">
          <mxGeometry x="414" y="155" width="176" height="72" as="geometry" />
        </mxCell>
        <mxCell id="bL8EN4vbK3xiG8M0gvX8-16" value="" style="sketch=0;points=[[0,0,0],[0.25,0,0],[0.5,0,0],[0.75,0,0],[1,0,0],[0,1,0],[0.25,1,0],[0.5,1,0],[0.75,1,0],[1,1,0],[0,0.25,0],[0,0.5,0],[0,0.75,0],[1,0.25,0],[1,0.5,0],[1,0.75,0]];outlineConnect=0;fontColor=#232F3E;fillColor=#E7157B;strokeColor=#ffffff;dashed=0;verticalLabelPosition=bottom;verticalAlign=top;align=center;html=1;fontSize=12;fontStyle=0;aspect=fixed;shape=mxgraph.aws4.resourceIcon;resIcon=mxgraph.aws4.api_gateway;" parent="1" vertex="1">
          <mxGeometry x="270.72" y="85.69999999999999" width="54" height="54" as="geometry" />
        </mxCell>
        <mxCell id="bL8EN4vbK3xiG8M0gvX8-17" value="&lt;span&gt;API Gateway&lt;/span&gt;" style="text;strokeColor=none;align=center;fillColor=none;html=1;verticalAlign=middle;whiteSpace=wrap;rounded=0;fontSize=12;" parent="1" vertex="1">
          <mxGeometry x="247.07999999999996" y="148" width="97.96" height="30" as="geometry" />
        </mxCell>
        <mxCell id="bL8EN4vbK3xiG8M0gvX8-19" value="" style="sketch=0;points=[[0,0,0],[0.25,0,0],[0.5,0,0],[0.75,0,0],[1,0,0],[0,1,0],[0.25,1,0],[0.5,1,0],[0.75,1,0],[1,1,0],[0,0.25,0],[0,0.5,0],[0,0.75,0],[1,0.25,0],[1,0.5,0],[1,0.75,0]];outlineConnect=0;fontColor=#232F3E;fillColor=#ED7100;strokeColor=#ffffff;dashed=0;verticalLabelPosition=bottom;verticalAlign=top;align=center;html=1;fontSize=12;fontStyle=0;aspect=fixed;shape=mxgraph.aws4.resourceIcon;resIcon=mxgraph.aws4.lambda;" parent="1" vertex="1">
          <mxGeometry x="471" y="88" width="57" height="57" as="geometry" />
        </mxCell>
        <mxCell id="bL8EN4vbK3xiG8M0gvX8-20" value="" style="edgeStyle=orthogonalEdgeStyle;html=1;endArrow=block;elbow=vertical;startArrow=none;endFill=1;strokeColor=light-dark(#545B64,#FFFFFF);rounded=0;flowAnimation=0;fontSize=12;" parent="1" edge="1">
          <mxGeometry width="100" relative="1" as="geometry">
            <mxPoint x="111" y="285.5" as="sourcePoint" />
            <mxPoint x="-198" y="179" as="targetPoint" />
          </mxGeometry>
        </mxCell>
        <mxCell id="bL8EN4vbK3xiG8M0gvX8-21" value="&lt;font&gt;Recruiters&lt;/font&gt;" style="text;strokeColor=none;align=center;fillColor=none;html=1;verticalAlign=middle;whiteSpace=wrap;rounded=0;fontSize=12;" parent="1" vertex="1">
          <mxGeometry x="-523" y="154" width="60" height="30" as="geometry" />
        </mxCell>
        <mxCell id="bL8EN4vbK3xiG8M0gvX8-22" value="&lt;font&gt;stores extracted keywords&lt;/font&gt;" style="text;strokeColor=none;align=center;fillColor=none;html=1;verticalAlign=middle;whiteSpace=wrap;rounded=0;fontSize=12;" parent="1" vertex="1">
          <mxGeometry x="82" y="325" width="128" height="30" as="geometry" />
        </mxCell>
        <mxCell id="bL8EN4vbK3xiG8M0gvX8-23" value="&lt;font&gt;Analyze text&amp;nbsp;&lt;/font&gt;" style="text;strokeColor=none;align=center;fillColor=none;html=1;verticalAlign=middle;whiteSpace=wrap;rounded=0;fontSize=12;" parent="1" vertex="1">
          <mxGeometry x="244" y="323" width="155" height="30" as="geometry" />
        </mxCell>
        <mxCell id="bL8EN4vbK3xiG8M0gvX8-24" value="&lt;font&gt;Extract full text content&lt;/font&gt;" style="text;strokeColor=none;align=center;fillColor=none;html=1;verticalAlign=middle;whiteSpace=wrap;rounded=0;fontSize=12;" parent="1" vertex="1">
          <mxGeometry x="469.5" y="329" width="60" height="30" as="geometry" />
        </mxCell>
        <mxCell id="bL8EN4vbK3xiG8M0gvX8-26" value="" style="image;aspect=fixed;perimeter=ellipsePerimeter;html=1;align=center;shadow=0;dashed=0;spacingTop=3;image=img/lib/active_directory/users.svg;fontSize=12;" parent="1" vertex="1">
          <mxGeometry x="-527" y="29.09" width="73" height="110.61" as="geometry" />
        </mxCell>
        <mxCell id="bL8EN4vbK3xiG8M0gvX8-34" value="" style="sketch=0;outlineConnect=0;fontColor=#232F3E;gradientColor=none;fillColor=#7AA116;strokeColor=none;dashed=0;verticalLabelPosition=bottom;verticalAlign=top;align=center;html=1;fontSize=12;fontStyle=0;aspect=fixed;pointerEvents=1;shape=mxgraph.aws4.bucket;" parent="1" vertex="1">
          <mxGeometry x="636" y="85.69999999999999" width="56.73" height="59" as="geometry" />
        </mxCell>
        <mxCell id="bL8EN4vbK3xiG8M0gvX8-38" value="" style="sketch=0;points=[[0,0,0],[0.25,0,0],[0.5,0,0],[0.75,0,0],[1,0,0],[0,1,0],[0.25,1,0],[0.5,1,0],[0.75,1,0],[1,1,0],[0,0.25,0],[0,0.5,0],[0,0.75,0],[1,0.25,0],[1,0.5,0],[1,0.75,0]];points=[[0,0,0],[0.25,0,0],[0.5,0,0],[0.75,0,0],[1,0,0],[0,1,0],[0.25,1,0],[0.5,1,0],[0.75,1,0],[1,1,0],[0,0.25,0],[0,0.5,0],[0,0.75,0],[1,0.25,0],[1,0.5,0],[1,0.75,0]];outlineConnect=0;fontColor=#232F3E;fillColor=#E7157B;strokeColor=#ffffff;dashed=0;verticalLabelPosition=bottom;verticalAlign=top;align=center;html=1;fontSize=12;fontStyle=0;aspect=fixed;shape=mxgraph.aws4.resourceIcon;resIcon=mxgraph.aws4.cloudwatch_2;" parent="1" vertex="1">
          <mxGeometry x="603" y="509" width="49" height="49" as="geometry" />
        </mxCell>
        <mxCell id="bL8EN4vbK3xiG8M0gvX8-39" value="" style="sketch=0;points=[[0,0,0],[0.25,0,0],[0.5,0,0],[0.75,0,0],[1,0,0],[0,1,0],[0.25,1,0],[0.5,1,0],[0.75,1,0],[1,1,0],[0,0.25,0],[0,0.5,0],[0,0.75,0],[1,0.25,0],[1,0.5,0],[1,0.75,0]];outlineConnect=0;fontColor=#232F3E;fillColor=#C925D1;strokeColor=#ffffff;dashed=0;verticalLabelPosition=bottom;verticalAlign=top;align=center;html=1;fontSize=12;fontStyle=0;aspect=fixed;shape=mxgraph.aws4.resourceIcon;resIcon=mxgraph.aws4.xray;" parent="1" vertex="1">
          <mxGeometry x="394" y="502.75" width="43" height="43" as="geometry" />
        </mxCell>
        <mxCell id="bL8EN4vbK3xiG8M0gvX8-40" value="&lt;span&gt;Monitors&amp;nbsp; API Gateway, lambda, S3, DynamoDB&lt;/span&gt;" style="text;strokeColor=none;align=center;fillColor=none;html=1;verticalAlign=middle;whiteSpace=wrap;rounded=0;fontSize=12;" parent="1" vertex="1">
          <mxGeometry x="565" y="571" width="127.75" height="58.25" as="geometry" />
        </mxCell>
        <mxCell id="bL8EN4vbK3xiG8M0gvX8-41" value="&lt;font&gt;Monitors to API Gateway and lambda&lt;/font&gt;" style="text;strokeColor=none;align=center;fillColor=none;html=1;verticalAlign=middle;whiteSpace=wrap;rounded=0;fontSize=12;" parent="1" vertex="1">
          <mxGeometry x="364" y="549" width="130" height="53" as="geometry" />
        </mxCell>
        <mxCell id="bL8EN4vbK3xiG8M0gvX8-45" value="" style="sketch=0;points=[[0,0,0],[0.25,0,0],[0.5,0,0],[0.75,0,0],[1,0,0],[0,1,0],[0.25,1,0],[0.5,1,0],[0.75,1,0],[1,1,0],[0,0.25,0],[0,0.5,0],[0,0.75,0],[1,0.25,0],[1,0.5,0],[1,0.75,0]];outlineConnect=0;fontColor=#232F3E;fillColor=#C925D1;strokeColor=#ffffff;dashed=0;verticalLabelPosition=bottom;verticalAlign=top;align=center;html=1;fontSize=12;fontStyle=0;aspect=fixed;shape=mxgraph.aws4.resourceIcon;resIcon=mxgraph.aws4.dynamodb;" parent="1" vertex="1">
          <mxGeometry x="116.62" y="254" width="58.75" height="58.75" as="geometry" />
        </mxCell>
        <mxCell id="bL8EN4vbK3xiG8M0gvX8-49" value="" style="edgeStyle=orthogonalEdgeStyle;html=1;endArrow=block;elbow=vertical;startArrow=none;endFill=1;strokeColor=light-dark(#545B64,#FFFFFF);rounded=0;flowAnimation=0;fontSize=12;" parent="1" edge="1">
          <mxGeometry width="100" relative="1" as="geometry">
            <mxPoint x="551" y="112.48999999999998" as="sourcePoint" />
            <mxPoint x="624" y="111.98999999999998" as="targetPoint" />
          </mxGeometry>
        </mxCell>
        <mxCell id="bL8EN4vbK3xiG8M0gvX8-50" style="edgeStyle=orthogonalEdgeStyle;rounded=0;orthogonalLoop=1;jettySize=auto;html=1;exitX=0.5;exitY=1;exitDx=0;exitDy=0;fontSize=12;" parent="1" source="bL8EN4vbK3xiG8M0gvX8-22" target="bL8EN4vbK3xiG8M0gvX8-22" edge="1">
          <mxGeometry relative="1" as="geometry" />
        </mxCell>
        <mxCell id="bL8EN4vbK3xiG8M0gvX8-73" value="&lt;font&gt;S3 event notification&lt;/font&gt;" style="text;strokeColor=none;align=center;fillColor=none;html=1;verticalAlign=middle;whiteSpace=wrap;rounded=0;fontSize=12;" parent="1" vertex="1">
          <mxGeometry x="675" y="211" width="81" height="20" as="geometry" />
        </mxCell>
        <mxCell id="bL8EN4vbK3xiG8M0gvX8-77" value="" style="edgeStyle=orthogonalEdgeStyle;html=1;endArrow=block;elbow=vertical;startArrow=none;endFill=1;strokeColor=light-dark(#545B64,#FFFFFF);rounded=0;flowAnimation=0;fontSize=12;" parent="1" edge="1">
          <mxGeometry width="100" relative="1" as="geometry">
            <mxPoint x="-437" y="87" as="sourcePoint" />
            <mxPoint x="-238" y="87" as="targetPoint" />
          </mxGeometry>
        </mxCell>
        <mxCell id="bL8EN4vbK3xiG8M0gvX8-78" value="" style="verticalLabelPosition=bottom;html=1;verticalAlign=top;align=center;strokeColor=none;fillColor=#00BEF2;shape=mxgraph.azure.computer;pointerEvents=1;" parent="1" vertex="1">
          <mxGeometry x="-239" y="61" width="85" height="73" as="geometry" />
        </mxCell>
        <mxCell id="bL8EN4vbK3xiG8M0gvX8-79" value="recruiter system" style="text;strokeColor=none;align=center;fillColor=none;html=1;verticalAlign=middle;whiteSpace=wrap;rounded=0;fontSize=12;" parent="1" vertex="1">
          <mxGeometry x="-224" y="139.7" width="60" height="30" as="geometry" />
        </mxCell>
        <mxCell id="bL8EN4vbK3xiG8M0gvX8-80" value="" style="endArrow=classic;html=1;rounded=0;flowAnimation=1;fontSize=12;" parent="1" edge="1">
          <mxGeometry width="50" height="50" relative="1" as="geometry">
            <mxPoint x="483" y="77" as="sourcePoint" />
            <mxPoint x="-199" y="54" as="targetPoint" />
            <Array as="points">
              <mxPoint x="483" y="31" />
              <mxPoint x="250" y="31" />
              <mxPoint x="-199" y="34" />
            </Array>
          </mxGeometry>
        </mxCell>
        <mxCell id="bL8EN4vbK3xiG8M0gvX8-81" value="&lt;font&gt;upload feedback&lt;/font&gt;" style="text;strokeColor=none;align=center;fillColor=none;html=1;verticalAlign=middle;whiteSpace=wrap;rounded=0;fontSize=12;" parent="1" vertex="1">
          <mxGeometry x="248" y="1" width="104" height="30" as="geometry" />
        </mxCell>
        <mxCell id="bL8EN4vbK3xiG8M0gvX8-88" value="" style="endArrow=classic;html=1;rounded=0;flowAnimation=1;exitX=0.422;exitY=0.858;exitDx=0;exitDy=0;exitPerimeter=0;fontSize=12;" parent="1" edge="1">
          <mxGeometry width="50" height="50" relative="1" as="geometry">
            <mxPoint x="626.9999999999999" y="131" as="sourcePoint" />
            <mxPoint x="543.32" y="131.16800000000012" as="targetPoint" />
          </mxGeometry>
        </mxCell>
        <mxCell id="bL8EN4vbK3xiG8M0gvX8-91" value="" style="endArrow=classic;html=1;rounded=0;flowAnimation=0;fontSize=12;" parent="1" edge="1">
          <mxGeometry width="50" height="50" relative="1" as="geometry">
            <mxPoint x="436" y="281.29" as="sourcePoint" />
            <mxPoint x="371" y="281.45800000000014" as="targetPoint" />
          </mxGeometry>
        </mxCell>
        <mxCell id="bL8EN4vbK3xiG8M0gvX8-92" value="" style="endArrow=classic;html=1;rounded=0;flowAnimation=0;fontSize=12;" parent="1" edge="1">
          <mxGeometry width="50" height="50" relative="1" as="geometry">
            <mxPoint x="260" y="281.28999999999996" as="sourcePoint" />
            <mxPoint x="195" y="281.4580000000001" as="targetPoint" />
          </mxGeometry>
        </mxCell>
        <mxCell id="0BEf4M6oP_7AgcYKJ78K-1" value="" style="sketch=0;outlineConnect=0;fontColor=#232F3E;gradientColor=none;strokeColor=#ffffff;fillColor=#232F3E;dashed=0;verticalLabelPosition=middle;verticalAlign=bottom;align=center;html=1;whiteSpace=wrap;fontSize=10;fontStyle=1;spacing=3;shape=mxgraph.aws4.productIcon;prIcon=mxgraph.aws4.comprehend;" parent="1" vertex="1">
          <mxGeometry x="289" y="259.75" width="56.04" height="54.25" as="geometry" />
        </mxCell>
        <mxCell id="WYZTuE26Y5HFJGE7LXhy-2" value="" style="endArrow=classic;html=1;rounded=0;flowAnimation=0;" parent="1" edge="1">
          <mxGeometry width="50" height="50" relative="1" as="geometry">
            <mxPoint x="438" y="143" as="sourcePoint" />
            <mxPoint x="181" y="256" as="targetPoint" />
          </mxGeometry>
        </mxCell>
        <mxCell id="lYUpwIi_zladpmNO_TKT-1" value="" style="sketch=0;points=[[0,0,0],[0.25,0,0],[0.5,0,0],[0.75,0,0],[1,0,0],[0,1,0],[0.25,1,0],[0.5,1,0],[0.75,1,0],[1,1,0],[0,0.25,0],[0,0.5,0],[0,0.75,0],[1,0.25,0],[1,0.5,0],[1,0.75,0]];outlineConnect=0;fontColor=#232F3E;fillColor=#01A88D;strokeColor=#ffffff;dashed=0;verticalLabelPosition=bottom;verticalAlign=top;align=center;html=1;fontSize=12;fontStyle=0;aspect=fixed;shape=mxgraph.aws4.resourceIcon;resIcon=mxgraph.aws4.textract;" parent="1" vertex="1">
          <mxGeometry x="464" y="254" width="61" height="61" as="geometry" />
        </mxCell>
        <mxCell id="s66ka_y6fgx1tOAvkaPo-2" value="" style="sketch=0;outlineConnect=0;dashed=0;verticalLabelPosition=bottom;verticalAlign=top;align=center;html=1;fontSize=12;fontStyle=0;aspect=fixed;shape=mxgraph.aws4.resourceIcon;resIcon=mxgraph.aws4.aws_cloud;movable=1;resizable=1;rotatable=1;deletable=1;editable=1;locked=0;connectable=1;" parent="1" vertex="1">
          <mxGeometry x="-151" y="-118.5" width="37" height="37" as="geometry" />
        </mxCell>
        <mxCell id="s66ka_y6fgx1tOAvkaPo-3" value="&lt;font&gt;AWS Cloud&lt;/font&gt;" style="text;html=1;align=center;verticalAlign=middle;whiteSpace=wrap;rounded=0;movable=1;resizable=1;rotatable=1;deletable=1;editable=1;locked=0;connectable=1;fontSize=12;" parent="1" vertex="1">
          <mxGeometry x="-116.00000000000003" y="-118.5" width="72.29" height="30" as="geometry" />
        </mxCell>
        <mxCell id="s66ka_y6fgx1tOAvkaPo-8" value="" style="outlineConnect=0;dashed=0;verticalLabelPosition=bottom;verticalAlign=top;align=center;html=1;shape=mxgraph.aws3.iam;fillColor=#759C3E;gradientColor=none;" parent="1" vertex="1">
          <mxGeometry x="244" y="514" width="32" height="52" as="geometry" />
        </mxCell>
        <mxCell id="s66ka_y6fgx1tOAvkaPo-9" value="&lt;font&gt;IAM&lt;/font&gt;" style="text;strokeColor=none;align=center;fillColor=none;html=1;verticalAlign=middle;whiteSpace=wrap;rounded=0;fontSize=12;" parent="1" vertex="1">
          <mxGeometry x="196" y="577" width="128" height="30" as="geometry" />
        </mxCell>
        <mxCell id="lRF_Yri0T9cS6F2MzstL-1" value="&lt;font&gt;resume&lt;/font&gt;" style="text;strokeColor=none;align=center;fillColor=none;html=1;verticalAlign=middle;whiteSpace=wrap;rounded=0;fontSize=12;" parent="1" vertex="1">
          <mxGeometry x="603" y="153" width="104" height="20" as="geometry" />
        </mxCell>
        <mxCell id="4KWQUrdwI0VVALUKt8jx-1" value="&lt;font style=&quot;font-size: 15px;&quot;&gt;1&lt;/font&gt;" style="text;strokeColor=none;align=center;fillColor=none;html=1;verticalAlign=middle;whiteSpace=wrap;rounded=0;fontSize=12;" parent="1" vertex="1">
          <mxGeometry x="-16.5" y="70" width="25" height="29" as="geometry" />
        </mxCell>
        <mxCell id="4KWQUrdwI0VVALUKt8jx-3" value="" style="edgeStyle=orthogonalEdgeStyle;html=1;endArrow=block;elbow=vertical;startArrow=none;endFill=1;strokeColor=light-dark(#545B64,#FFFFFF);rounded=0;flowAnimation=0;fontSize=12;" parent="1" edge="1">
          <mxGeometry width="100" relative="1" as="geometry">
            <mxPoint x="361" y="112.61" as="sourcePoint" />
            <mxPoint x="434" y="112.11" as="targetPoint" />
          </mxGeometry>
        </mxCell>
        <mxCell id="4KWQUrdwI0VVALUKt8jx-4" value="&lt;font style=&quot;font-size: 15px;&quot;&gt;2&lt;/font&gt;" style="text;strokeColor=none;align=center;fillColor=none;html=1;verticalAlign=middle;whiteSpace=wrap;rounded=0;fontSize=12;" parent="1" vertex="1">
          <mxGeometry x="377" y="75.19999999999999" width="25" height="29" as="geometry" />
        </mxCell>
        <mxCell id="4KWQUrdwI0VVALUKt8jx-5" value="&lt;font style=&quot;font-size: 15px;&quot;&gt;3&lt;/font&gt;" style="text;strokeColor=none;align=center;fillColor=none;html=1;verticalAlign=middle;whiteSpace=wrap;rounded=0;fontSize=12;" parent="1" vertex="1">
          <mxGeometry x="565" y="75.19999999999999" width="25" height="29" as="geometry" />
        </mxCell>
        <mxCell id="4KWQUrdwI0VVALUKt8jx-6" value="&lt;font style=&quot;font-size: 15px;&quot;&gt;4&lt;/font&gt;" style="text;strokeColor=none;align=center;fillColor=none;html=1;verticalAlign=middle;whiteSpace=wrap;rounded=0;fontSize=12;" parent="1" vertex="1">
          <mxGeometry x="578" y="252" width="25" height="29" as="geometry" />
        </mxCell>
        <mxCell id="4KWQUrdwI0VVALUKt8jx-7" value="&lt;font style=&quot;font-size: 15px;&quot;&gt;5&lt;/font&gt;" style="text;strokeColor=none;align=center;fillColor=none;html=1;verticalAlign=middle;whiteSpace=wrap;rounded=0;fontSize=12;" parent="1" vertex="1">
          <mxGeometry x="392" y="248" width="25" height="29" as="geometry" />
        </mxCell>
        <mxCell id="4KWQUrdwI0VVALUKt8jx-8" value="&lt;font style=&quot;font-size: 15px;&quot;&gt;6&lt;/font&gt;" style="text;strokeColor=none;align=center;fillColor=none;html=1;verticalAlign=middle;whiteSpace=wrap;rounded=0;fontSize=12;" parent="1" vertex="1">
          <mxGeometry x="230" y="254" width="25" height="29" as="geometry" />
        </mxCell>
        <mxCell id="4KWQUrdwI0VVALUKt8jx-9" value="&lt;font style=&quot;font-size: 15px;&quot;&gt;7&lt;/font&gt;" style="text;strokeColor=none;align=center;fillColor=none;html=1;verticalAlign=middle;whiteSpace=wrap;rounded=0;fontSize=12;" parent="1" vertex="1">
          <mxGeometry x="255" y="184" width="25" height="29" as="geometry" />
        </mxCell>
        <mxCell id="4KWQUrdwI0VVALUKt8jx-10" value="&lt;font style=&quot;font-size: 15px;&quot;&gt;8&lt;/font&gt;" style="text;strokeColor=none;align=center;fillColor=none;html=1;verticalAlign=middle;whiteSpace=wrap;rounded=0;fontSize=12;" parent="1" vertex="1">
          <mxGeometry x="-28" y="263" width="25" height="29" as="geometry" />
        </mxCell>
        <mxCell id="aPgaUmDM9Z9FBOJ3SoaB-1" value="" style="sketch=0;points=[[0,0,0],[0.25,0,0],[0.5,0,0],[0.75,0,0],[1,0,0],[0,1,0],[0.25,1,0],[0.5,1,0],[0.75,1,0],[1,1,0],[0,0.25,0],[0,0.5,0],[0,0.75,0],[1,0.25,0],[1,0.5,0],[1,0.75,0]];points=[[0,0,0],[0.25,0,0],[0.5,0,0],[0.75,0,0],[1,0,0],[0,1,0],[0.25,1,0],[0.5,1,0],[0.75,1,0],[1,1,0],[0,0.25,0],[0,0.5,0],[0,0.75,0],[1,0.25,0],[1,0.5,0],[1,0.75,0]];outlineConnect=0;fontColor=#232F3E;fillColor=#E7157B;strokeColor=#ffffff;dashed=0;verticalLabelPosition=bottom;verticalAlign=top;align=center;html=1;fontSize=12;fontStyle=0;aspect=fixed;shape=mxgraph.aws4.resourceIcon;resIcon=mxgraph.aws4.cloudtrail;" parent="1" vertex="1">
          <mxGeometry x="766" y="505" width="50" height="50" as="geometry" />
        </mxCell>
        <mxCell id="aPgaUmDM9Z9FBOJ3SoaB-2" value="&lt;font&gt;Tracks API calls and who did what and when&lt;/font&gt;" style="text;strokeColor=none;align=center;fillColor=none;html=1;verticalAlign=middle;whiteSpace=wrap;rounded=0;fontSize=12;" parent="1" vertex="1">
          <mxGeometry x="732" y="571" width="128" height="30" as="geometry" />
        </mxCell>
        <mxCell id="aPgaUmDM9Z9FBOJ3SoaB-4" value="AWS Account" style="points=[[0,0],[0.25,0],[0.5,0],[0.75,0],[1,0],[1,0.25],[1,0.5],[1,0.75],[1,1],[0.75,1],[0.5,1],[0.25,1],[0,1],[0,0.75],[0,0.5],[0,0.25]];outlineConnect=0;gradientColor=none;html=1;whiteSpace=wrap;fontSize=12;fontStyle=0;container=1;pointerEvents=0;collapsible=0;recursiveResize=0;shape=mxgraph.aws4.group;grIcon=mxgraph.aws4.group_account;strokeColor=#CD2264;fillColor=none;verticalAlign=top;align=left;spacingLeft=30;fontColor=#CD2264;dashed=0;" parent="1" vertex="1">
          <mxGeometry x="-116" y="-34" width="111.5" height="26" as="geometry" />
        </mxCell>
        <mxCell id="aPgaUmDM9Z9FBOJ3SoaB-7" style="edgeStyle=orthogonalEdgeStyle;rounded=0;orthogonalLoop=1;jettySize=auto;html=1;exitX=0.5;exitY=1;exitDx=0;exitDy=0;" parent="1" edge="1">
          <mxGeometry relative="1" as="geometry">
            <mxPoint x="163.5" y="-33" as="sourcePoint" />
            <mxPoint x="163.5" y="-33" as="targetPoint" />
          </mxGeometry>
        </mxCell>
        <mxCell id="aPgaUmDM9Z9FBOJ3SoaB-10" value="&lt;font style=&quot;color: rgb(0, 0, 0);&quot;&gt;us-east-1&lt;/font&gt;" style="points=[[0,0],[0.25,0],[0.5,0],[0.75,0],[1,0],[1,0.25],[1,0.5],[1,0.75],[1,1],[0.75,1],[0.5,1],[0.25,1],[0,1],[0,0.75],[0,0.5],[0,0.25]];outlineConnect=0;gradientColor=none;html=1;whiteSpace=wrap;fontSize=12;fontStyle=0;container=1;pointerEvents=0;collapsible=0;recursiveResize=0;shape=mxgraph.aws4.group;grIcon=mxgraph.aws4.group_region;strokeColor=#00A4A6;fillColor=none;verticalAlign=top;align=left;spacingLeft=30;fontColor=#147EBA;dashed=1;" parent="1" vertex="1">
          <mxGeometry x="-131" y="-75" width="91" height="25" as="geometry" />
        </mxCell>
        <mxCell id="UXBi4p6lYTeWCEjWp2_n-1" value="" style="outlineConnect=0;dashed=0;verticalLabelPosition=bottom;verticalAlign=top;align=center;html=1;shape=mxgraph.aws3.cloudformation;fillColor=#759C3E;gradientColor=none;" parent="1" vertex="1">
          <mxGeometry x="-93" y="318" width="38.75" height="45.75" as="geometry" />
        </mxCell>
        <mxCell id="UXBi4p6lYTeWCEjWp2_n-2" value="cloudformation" style="text;strokeColor=none;align=center;fillColor=none;html=1;verticalAlign=middle;whiteSpace=wrap;rounded=0;fontSize=12;" parent="1" vertex="1">
          <mxGeometry x="-111" y="367" width="80.38" height="26" as="geometry" />
        </mxCell>
        <mxCell id="UXBi4p6lYTeWCEjWp2_n-3" value="" style="rounded=0;whiteSpace=wrap;html=1;opacity=10;strokeWidth=3;" parent="1" vertex="1">
          <mxGeometry x="29" y="49" width="750" height="324" as="geometry" />
        </mxCell>
        <mxCell id="UXBi4p6lYTeWCEjWp2_n-66" value="" style="endArrow=classic;html=1;rounded=0;" parent="1" edge="1">
          <mxGeometry width="50" height="50" relative="1" as="geometry">
            <mxPoint x="-45" y="339.5" as="sourcePoint" />
            <mxPoint x="-10" y="339.5" as="targetPoint" />
          </mxGeometry>
        </mxCell>
      </root>
    </mxGraphModel>
  </diagram>
  <diagram id="htvWN1RxErhu1hQxsCSB" name="soln with custom vpc">
    <mxGraphModel dx="642" dy="674" grid="0" gridSize="10" guides="1" tooltips="1" connect="1" arrows="1" fold="1" page="0" pageScale="1" pageWidth="850" pageHeight="1100" math="0" shadow="0">
      <root>
        <mxCell id="0" />
        <mxCell id="1" parent="0" />
        <mxCell id="-ayLTPassgS5V5fUFNFJ-1" value="" style="rounded=0;whiteSpace=wrap;html=1;opacity=20;strokeWidth=6;gradientColor=none;gradientDirection=radial;movable=1;resizable=1;rotatable=1;deletable=1;editable=1;locked=0;connectable=1;fontSize=12;" vertex="1" parent="1">
          <mxGeometry x="1087.5" y="382" width="962.5" height="696" as="geometry" />
        </mxCell>
        <mxCell id="-ayLTPassgS5V5fUFNFJ-2" value="" style="rounded=0;whiteSpace=wrap;html=1;opacity=20;strokeWidth=5;gradientColor=none;gradientDirection=radial;movable=1;resizable=1;rotatable=1;deletable=1;editable=1;locked=0;connectable=1;fontSize=12;" vertex="1" parent="1">
          <mxGeometry x="1029" y="297" width="1070" height="823" as="geometry" />
        </mxCell>
        <mxCell id="-ayLTPassgS5V5fUFNFJ-3" value="" style="rounded=0;whiteSpace=wrap;html=1;opacity=20;strokeWidth=6;gradientColor=none;gradientDirection=radial;movable=1;resizable=1;rotatable=1;deletable=1;editable=1;locked=0;connectable=1;fontSize=12;" vertex="1" parent="1">
          <mxGeometry x="1047" y="339" width="1014" height="752" as="geometry" />
        </mxCell>
        <mxCell id="-ayLTPassgS5V5fUFNFJ-4" value="" style="endArrow=classic;html=1;rounded=0;flowAnimation=0;fontSize=12;" edge="1" parent="1">
          <mxGeometry width="50" height="50" relative="1" as="geometry">
            <mxPoint x="1640" y="587" as="sourcePoint" />
            <mxPoint x="1640" y="659" as="targetPoint" />
            <Array as="points">
              <mxPoint x="1640" y="640" />
            </Array>
          </mxGeometry>
        </mxCell>
        <mxCell id="-ayLTPassgS5V5fUFNFJ-5" value="&lt;font&gt;recruiter action&lt;/font&gt;" style="text;strokeColor=none;align=center;fillColor=none;html=1;verticalAlign=middle;whiteSpace=wrap;rounded=0;fontSize=12;" vertex="1" parent="1">
          <mxGeometry x="1001.5000000000001" y="515" width="104" height="30" as="geometry" />
        </mxCell>
        <mxCell id="-ayLTPassgS5V5fUFNFJ-6" value="&lt;font&gt;Calls the S3 SDK and generates a pre-signed PUT url with content-type =application/pdf&lt;/font&gt;" style="text;strokeColor=none;align=center;fillColor=none;html=1;verticalAlign=middle;whiteSpace=wrap;rounded=0;fontSize=12;" vertex="1" parent="1">
          <mxGeometry x="1395" y="545" width="159" height="72" as="geometry" />
        </mxCell>
        <mxCell id="-ayLTPassgS5V5fUFNFJ-7" value="" style="sketch=0;points=[[0,0,0],[0.25,0,0],[0.5,0,0],[0.75,0,0],[1,0,0],[0,1,0],[0.25,1,0],[0.5,1,0],[0.75,1,0],[1,1,0],[0,0.25,0],[0,0.5,0],[0,0.75,0],[1,0.25,0],[1,0.5,0],[1,0.75,0]];outlineConnect=0;fontColor=#232F3E;fillColor=#E7157B;strokeColor=#ffffff;dashed=0;verticalLabelPosition=bottom;verticalAlign=top;align=center;html=1;fontSize=12;fontStyle=0;aspect=fixed;shape=mxgraph.aws4.resourceIcon;resIcon=mxgraph.aws4.api_gateway;" vertex="1" parent="1">
          <mxGeometry x="1127" y="480" width="54" height="54" as="geometry" />
        </mxCell>
        <mxCell id="-ayLTPassgS5V5fUFNFJ-8" value="&lt;span&gt;API Gateway&lt;/span&gt;" style="text;strokeColor=none;align=center;fillColor=none;html=1;verticalAlign=middle;whiteSpace=wrap;rounded=0;fontSize=12;" vertex="1" parent="1">
          <mxGeometry x="1111" y="543" width="97.96" height="30" as="geometry" />
        </mxCell>
        <mxCell id="-ayLTPassgS5V5fUFNFJ-9" value="" style="edgeStyle=orthogonalEdgeStyle;html=1;endArrow=block;elbow=vertical;startArrow=none;endFill=1;strokeColor=light-dark(#545B64,#FFFFFF);rounded=0;flowAnimation=0;fontSize=12;" edge="1" parent="1">
          <mxGeometry width="100" relative="1" as="geometry">
            <mxPoint x="1257" y="704.5" as="sourcePoint" />
            <mxPoint x="948" y="598" as="targetPoint" />
          </mxGeometry>
        </mxCell>
        <mxCell id="-ayLTPassgS5V5fUFNFJ-10" value="&lt;font&gt;Recruiters&lt;/font&gt;" style="text;strokeColor=none;align=center;fillColor=none;html=1;verticalAlign=middle;whiteSpace=wrap;rounded=0;fontSize=12;" vertex="1" parent="1">
          <mxGeometry x="623" y="573" width="60" height="30" as="geometry" />
        </mxCell>
        <mxCell id="-ayLTPassgS5V5fUFNFJ-11" value="&lt;font&gt;stores extracted keywords&lt;/font&gt;" style="text;strokeColor=none;align=center;fillColor=none;html=1;verticalAlign=middle;whiteSpace=wrap;rounded=0;fontSize=12;" vertex="1" parent="1">
          <mxGeometry x="1228" y="744" width="128" height="30" as="geometry" />
        </mxCell>
        <mxCell id="-ayLTPassgS5V5fUFNFJ-12" value="&lt;font&gt;Analyze text&amp;nbsp;&lt;/font&gt;" style="text;strokeColor=none;align=center;fillColor=none;html=1;verticalAlign=middle;whiteSpace=wrap;rounded=0;fontSize=12;" vertex="1" parent="1">
          <mxGeometry x="1390" y="742" width="155" height="30" as="geometry" />
        </mxCell>
        <mxCell id="-ayLTPassgS5V5fUFNFJ-13" value="&lt;font&gt;Extract full text content&lt;/font&gt;" style="text;strokeColor=none;align=center;fillColor=none;html=1;verticalAlign=middle;whiteSpace=wrap;rounded=0;fontSize=12;" vertex="1" parent="1">
          <mxGeometry x="1615.5" y="748" width="60" height="30" as="geometry" />
        </mxCell>
        <mxCell id="-ayLTPassgS5V5fUFNFJ-14" value="" style="image;aspect=fixed;perimeter=ellipsePerimeter;html=1;align=center;shadow=0;dashed=0;spacingTop=3;image=img/lib/active_directory/users.svg;fontSize=12;" vertex="1" parent="1">
          <mxGeometry x="619" y="448.09" width="73" height="110.61" as="geometry" />
        </mxCell>
        <mxCell id="-ayLTPassgS5V5fUFNFJ-15" value="" style="sketch=0;points=[[0,0,0],[0.25,0,0],[0.5,0,0],[0.75,0,0],[1,0,0],[0,1,0],[0.25,1,0],[0.5,1,0],[0.75,1,0],[1,1,0],[0,0.25,0],[0,0.5,0],[0,0.75,0],[1,0.25,0],[1,0.5,0],[1,0.75,0]];points=[[0,0,0],[0.25,0,0],[0.5,0,0],[0.75,0,0],[1,0,0],[0,1,0],[0.25,1,0],[0.5,1,0],[0.75,1,0],[1,1,0],[0,0.25,0],[0,0.5,0],[0,0.75,0],[1,0.25,0],[1,0.5,0],[1,0.75,0]];outlineConnect=0;fontColor=#232F3E;fillColor=#E7157B;strokeColor=#ffffff;dashed=0;verticalLabelPosition=bottom;verticalAlign=top;align=center;html=1;fontSize=12;fontStyle=0;aspect=fixed;shape=mxgraph.aws4.resourceIcon;resIcon=mxgraph.aws4.cloudwatch_2;" vertex="1" parent="1">
          <mxGeometry x="1638" y="921" width="58" height="58" as="geometry" />
        </mxCell>
        <mxCell id="-ayLTPassgS5V5fUFNFJ-16" value="" style="sketch=0;points=[[0,0,0],[0.25,0,0],[0.5,0,0],[0.75,0,0],[1,0,0],[0,1,0],[0.25,1,0],[0.5,1,0],[0.75,1,0],[1,1,0],[0,0.25,0],[0,0.5,0],[0,0.75,0],[1,0.25,0],[1,0.5,0],[1,0.75,0]];outlineConnect=0;fontColor=#232F3E;fillColor=#C925D1;strokeColor=#ffffff;dashed=0;verticalLabelPosition=bottom;verticalAlign=top;align=center;html=1;fontSize=12;fontStyle=0;aspect=fixed;shape=mxgraph.aws4.resourceIcon;resIcon=mxgraph.aws4.xray;" vertex="1" parent="1">
          <mxGeometry x="1458" y="916" width="63" height="63" as="geometry" />
        </mxCell>
        <mxCell id="-ayLTPassgS5V5fUFNFJ-17" value="&lt;span&gt;Monitors&amp;nbsp; API Gateway, lambda, S3, DynamoDB&lt;/span&gt;" style="text;strokeColor=none;align=center;fillColor=none;html=1;verticalAlign=middle;whiteSpace=wrap;rounded=0;fontSize=12;" vertex="1" parent="1">
          <mxGeometry x="1609" y="992" width="127.75" height="58.25" as="geometry" />
        </mxCell>
        <mxCell id="-ayLTPassgS5V5fUFNFJ-18" value="&lt;font&gt;Monitors to API Gateway and lambda&lt;/font&gt;" style="text;strokeColor=none;align=center;fillColor=none;html=1;verticalAlign=middle;whiteSpace=wrap;rounded=0;fontSize=12;" vertex="1" parent="1">
          <mxGeometry x="1428" y="982.25" width="130" height="53" as="geometry" />
        </mxCell>
        <mxCell id="-ayLTPassgS5V5fUFNFJ-19" value="" style="sketch=0;points=[[0,0,0],[0.25,0,0],[0.5,0,0],[0.75,0,0],[1,0,0],[0,1,0],[0.25,1,0],[0.5,1,0],[0.75,1,0],[1,1,0],[0,0.25,0],[0,0.5,0],[0,0.75,0],[1,0.25,0],[1,0.5,0],[1,0.75,0]];outlineConnect=0;fontColor=#232F3E;fillColor=#C925D1;strokeColor=#ffffff;dashed=0;verticalLabelPosition=bottom;verticalAlign=top;align=center;html=1;fontSize=12;fontStyle=0;aspect=fixed;shape=mxgraph.aws4.resourceIcon;resIcon=mxgraph.aws4.dynamodb;" vertex="1" parent="1">
          <mxGeometry x="1262.62" y="673" width="58.75" height="58.75" as="geometry" />
        </mxCell>
        <mxCell id="-ayLTPassgS5V5fUFNFJ-20" style="edgeStyle=orthogonalEdgeStyle;rounded=0;orthogonalLoop=1;jettySize=auto;html=1;exitX=0.5;exitY=1;exitDx=0;exitDy=0;fontSize=12;" edge="1" parent="1" source="-ayLTPassgS5V5fUFNFJ-11" target="-ayLTPassgS5V5fUFNFJ-11">
          <mxGeometry relative="1" as="geometry" />
        </mxCell>
        <mxCell id="-ayLTPassgS5V5fUFNFJ-21" value="" style="edgeStyle=orthogonalEdgeStyle;html=1;endArrow=block;elbow=vertical;startArrow=none;endFill=1;strokeColor=light-dark(#545B64,#FFFFFF);rounded=0;flowAnimation=0;fontSize=12;" edge="1" parent="1">
          <mxGeometry width="100" relative="1" as="geometry">
            <mxPoint x="709" y="506" as="sourcePoint" />
            <mxPoint x="908" y="506" as="targetPoint" />
          </mxGeometry>
        </mxCell>
        <mxCell id="-ayLTPassgS5V5fUFNFJ-22" value="" style="verticalLabelPosition=bottom;html=1;verticalAlign=top;align=center;strokeColor=none;fillColor=#00BEF2;shape=mxgraph.azure.computer;pointerEvents=1;" vertex="1" parent="1">
          <mxGeometry x="907" y="480" width="85" height="73" as="geometry" />
        </mxCell>
        <mxCell id="-ayLTPassgS5V5fUFNFJ-23" value="recruiter system" style="text;strokeColor=none;align=center;fillColor=none;html=1;verticalAlign=middle;whiteSpace=wrap;rounded=0;fontSize=12;" vertex="1" parent="1">
          <mxGeometry x="922" y="558.7" width="60" height="30" as="geometry" />
        </mxCell>
        <mxCell id="-ayLTPassgS5V5fUFNFJ-24" value="" style="endArrow=classic;html=1;rounded=0;flowAnimation=0;fontSize=12;" edge="1" parent="1">
          <mxGeometry width="50" height="50" relative="1" as="geometry">
            <mxPoint x="1582" y="700.29" as="sourcePoint" />
            <mxPoint x="1517" y="700.4580000000001" as="targetPoint" />
          </mxGeometry>
        </mxCell>
        <mxCell id="-ayLTPassgS5V5fUFNFJ-25" value="" style="endArrow=classic;html=1;rounded=0;flowAnimation=0;fontSize=12;" edge="1" parent="1">
          <mxGeometry width="50" height="50" relative="1" as="geometry">
            <mxPoint x="1406" y="700.29" as="sourcePoint" />
            <mxPoint x="1341" y="700.4580000000001" as="targetPoint" />
          </mxGeometry>
        </mxCell>
        <mxCell id="-ayLTPassgS5V5fUFNFJ-26" value="" style="sketch=0;outlineConnect=0;fontColor=#232F3E;gradientColor=none;strokeColor=#ffffff;fillColor=#232F3E;dashed=0;verticalLabelPosition=middle;verticalAlign=bottom;align=center;html=1;whiteSpace=wrap;fontSize=10;fontStyle=1;spacing=3;shape=mxgraph.aws4.productIcon;prIcon=mxgraph.aws4.comprehend;" vertex="1" parent="1">
          <mxGeometry x="1435" y="678.75" width="56.04" height="54.25" as="geometry" />
        </mxCell>
        <mxCell id="-ayLTPassgS5V5fUFNFJ-27" value="" style="sketch=0;points=[[0,0,0],[0.25,0,0],[0.5,0,0],[0.75,0,0],[1,0,0],[0,1,0],[0.25,1,0],[0.5,1,0],[0.75,1,0],[1,1,0],[0,0.25,0],[0,0.5,0],[0,0.75,0],[1,0.25,0],[1,0.5,0],[1,0.75,0]];outlineConnect=0;fontColor=#232F3E;fillColor=#01A88D;strokeColor=#ffffff;dashed=0;verticalLabelPosition=bottom;verticalAlign=top;align=center;html=1;fontSize=12;fontStyle=0;aspect=fixed;shape=mxgraph.aws4.resourceIcon;resIcon=mxgraph.aws4.textract;" vertex="1" parent="1">
          <mxGeometry x="1610" y="673" width="61" height="61" as="geometry" />
        </mxCell>
        <mxCell id="-ayLTPassgS5V5fUFNFJ-28" value="" style="sketch=0;outlineConnect=0;dashed=0;verticalLabelPosition=bottom;verticalAlign=top;align=center;html=1;fontSize=12;fontStyle=0;aspect=fixed;shape=mxgraph.aws4.resourceIcon;resIcon=mxgraph.aws4.aws_cloud;movable=1;resizable=1;rotatable=1;deletable=1;editable=1;locked=0;connectable=1;" vertex="1" parent="1">
          <mxGeometry x="1035" y="297" width="37" height="37" as="geometry" />
        </mxCell>
        <mxCell id="-ayLTPassgS5V5fUFNFJ-29" value="&lt;font&gt;AWS Cloud&lt;/font&gt;" style="text;html=1;align=center;verticalAlign=middle;whiteSpace=wrap;rounded=0;movable=1;resizable=1;rotatable=1;deletable=1;editable=1;locked=0;connectable=1;fontSize=12;" vertex="1" parent="1">
          <mxGeometry x="1076.03" y="300.5" width="72.29" height="30" as="geometry" />
        </mxCell>
        <mxCell id="-ayLTPassgS5V5fUFNFJ-30" value="" style="outlineConnect=0;dashed=0;verticalLabelPosition=bottom;verticalAlign=top;align=center;html=1;shape=mxgraph.aws3.iam;fillColor=#759C3E;gradientColor=none;" vertex="1" parent="1">
          <mxGeometry x="1288" y="916" width="32" height="71" as="geometry" />
        </mxCell>
        <mxCell id="-ayLTPassgS5V5fUFNFJ-31" value="&lt;font&gt;IAM&lt;/font&gt;" style="text;strokeColor=none;align=center;fillColor=none;html=1;verticalAlign=middle;whiteSpace=wrap;rounded=0;fontSize=12;" vertex="1" parent="1">
          <mxGeometry x="1240" y="998" width="128" height="30" as="geometry" />
        </mxCell>
        <mxCell id="-ayLTPassgS5V5fUFNFJ-32" value="&lt;font style=&quot;font-size: 15px;&quot;&gt;2&lt;/font&gt;" style="text;strokeColor=none;align=center;fillColor=none;html=1;verticalAlign=middle;whiteSpace=wrap;rounded=0;fontSize=12;" vertex="1" parent="1">
          <mxGeometry x="1262.62" y="480" width="25" height="29" as="geometry" />
        </mxCell>
        <mxCell id="-ayLTPassgS5V5fUFNFJ-33" value="&lt;font style=&quot;font-size: 15px;&quot;&gt;5&lt;/font&gt;" style="text;strokeColor=none;align=center;fillColor=none;html=1;verticalAlign=middle;whiteSpace=wrap;rounded=0;fontSize=12;" vertex="1" parent="1">
          <mxGeometry x="1538" y="667" width="25" height="29" as="geometry" />
        </mxCell>
        <mxCell id="-ayLTPassgS5V5fUFNFJ-34" value="&lt;font style=&quot;font-size: 15px;&quot;&gt;6&lt;/font&gt;" style="text;strokeColor=none;align=center;fillColor=none;html=1;verticalAlign=middle;whiteSpace=wrap;rounded=0;fontSize=12;" vertex="1" parent="1">
          <mxGeometry x="1376" y="673" width="25" height="29" as="geometry" />
        </mxCell>
        <mxCell id="-ayLTPassgS5V5fUFNFJ-35" value="&lt;font style=&quot;font-size: 15px;&quot;&gt;7&lt;/font&gt;" style="text;strokeColor=none;align=center;fillColor=none;html=1;verticalAlign=middle;whiteSpace=wrap;rounded=0;fontSize=12;" vertex="1" parent="1">
          <mxGeometry x="1304" y="588.7" width="25" height="29" as="geometry" />
        </mxCell>
        <mxCell id="-ayLTPassgS5V5fUFNFJ-36" value="&lt;font style=&quot;font-size: 15px;&quot;&gt;8&lt;/font&gt;" style="text;strokeColor=none;align=center;fillColor=none;html=1;verticalAlign=middle;whiteSpace=wrap;rounded=0;fontSize=12;" vertex="1" parent="1">
          <mxGeometry x="1118" y="682" width="25" height="29" as="geometry" />
        </mxCell>
        <mxCell id="-ayLTPassgS5V5fUFNFJ-37" value="" style="sketch=0;points=[[0,0,0],[0.25,0,0],[0.5,0,0],[0.75,0,0],[1,0,0],[0,1,0],[0.25,1,0],[0.5,1,0],[0.75,1,0],[1,1,0],[0,0.25,0],[0,0.5,0],[0,0.75,0],[1,0.25,0],[1,0.5,0],[1,0.75,0]];points=[[0,0,0],[0.25,0,0],[0.5,0,0],[0.75,0,0],[1,0,0],[0,1,0],[0.25,1,0],[0.5,1,0],[0.75,1,0],[1,1,0],[0,0.25,0],[0,0.5,0],[0,0.75,0],[1,0.25,0],[1,0.5,0],[1,0.75,0]];outlineConnect=0;fontColor=#232F3E;fillColor=#E7157B;strokeColor=#ffffff;dashed=0;verticalLabelPosition=bottom;verticalAlign=top;align=center;html=1;fontSize=12;fontStyle=0;aspect=fixed;shape=mxgraph.aws4.resourceIcon;resIcon=mxgraph.aws4.cloudtrail;" vertex="1" parent="1">
          <mxGeometry x="1800" y="916" width="60" height="60" as="geometry" />
        </mxCell>
        <mxCell id="-ayLTPassgS5V5fUFNFJ-38" value="&lt;font&gt;Tracks API calls and who did what and when&lt;/font&gt;" style="text;strokeColor=none;align=center;fillColor=none;html=1;verticalAlign=middle;whiteSpace=wrap;rounded=0;fontSize=12;" vertex="1" parent="1">
          <mxGeometry x="1776" y="992" width="128" height="30" as="geometry" />
        </mxCell>
        <mxCell id="-ayLTPassgS5V5fUFNFJ-39" value="AWS Account" style="points=[[0,0],[0.25,0],[0.5,0],[0.75,0],[1,0],[1,0.25],[1,0.5],[1,0.75],[1,1],[0.75,1],[0.5,1],[0.25,1],[0,1],[0,0.75],[0,0.5],[0,0.25]];outlineConnect=0;gradientColor=none;html=1;whiteSpace=wrap;fontSize=12;fontStyle=0;container=1;pointerEvents=0;collapsible=0;recursiveResize=0;shape=mxgraph.aws4.group;grIcon=mxgraph.aws4.group_account;strokeColor=#CD2264;fillColor=none;verticalAlign=top;align=left;spacingLeft=30;fontColor=#CD2264;dashed=0;" vertex="1" parent="1">
          <mxGeometry x="1087.5" y="386" width="111.5" height="26" as="geometry" />
        </mxCell>
        <mxCell id="-ayLTPassgS5V5fUFNFJ-40" style="edgeStyle=orthogonalEdgeStyle;rounded=0;orthogonalLoop=1;jettySize=auto;html=1;exitX=0.5;exitY=1;exitDx=0;exitDy=0;" edge="1" parent="1">
          <mxGeometry relative="1" as="geometry">
            <mxPoint x="1309.5" y="386" as="sourcePoint" />
            <mxPoint x="1309.5" y="386" as="targetPoint" />
          </mxGeometry>
        </mxCell>
        <mxCell id="-ayLTPassgS5V5fUFNFJ-41" value="&lt;font style=&quot;color: rgb(0, 0, 0);&quot;&gt;us-east-1&lt;/font&gt;" style="points=[[0,0],[0.25,0],[0.5,0],[0.75,0],[1,0],[1,0.25],[1,0.5],[1,0.75],[1,1],[0.75,1],[0.5,1],[0.25,1],[0,1],[0,0.75],[0,0.5],[0,0.25]];outlineConnect=0;gradientColor=none;html=1;whiteSpace=wrap;fontSize=12;fontStyle=0;container=1;pointerEvents=0;collapsible=0;recursiveResize=0;shape=mxgraph.aws4.group;grIcon=mxgraph.aws4.group_region;strokeColor=#00A4A6;fillColor=none;verticalAlign=top;align=left;spacingLeft=30;fontColor=#147EBA;dashed=1;" vertex="1" parent="1">
          <mxGeometry x="1061" y="348" width="91" height="25" as="geometry" />
        </mxCell>
        <mxCell id="-ayLTPassgS5V5fUFNFJ-42" value="&lt;font style=&quot;font-size: 11px;&quot;&gt;VPC&lt;/font&gt;" style="points=[[0,0],[0.25,0],[0.5,0],[0.75,0],[1,0],[1,0.25],[1,0.5],[1,0.75],[1,1],[0.75,1],[0.5,1],[0.25,1],[0,1],[0,0.75],[0,0.5],[0,0.25]];outlineConnect=0;gradientColor=none;html=1;whiteSpace=wrap;fontSize=12;fontStyle=0;container=1;pointerEvents=0;collapsible=0;recursiveResize=0;shape=mxgraph.aws4.group;grIcon=mxgraph.aws4.group_vpc2;strokeColor=#8C4FFF;fillColor=none;verticalAlign=top;align=left;spacingLeft=30;fontColor=#AAB7B8;strokeWidth=4;" vertex="1" parent="1">
          <mxGeometry x="1223" y="417" width="804" height="636" as="geometry" />
        </mxCell>
        <mxCell id="-ayLTPassgS5V5fUFNFJ-43" value="" style="edgeStyle=orthogonalEdgeStyle;html=1;endArrow=block;elbow=vertical;startArrow=none;endFill=1;strokeColor=light-dark(#545B64,#FFFFFF);rounded=0;flowAnimation=0;fontSize=12;" edge="1" parent="-ayLTPassgS5V5fUFNFJ-42">
          <mxGeometry width="100" relative="1" as="geometry">
            <mxPoint x="-38" y="91.19999999999999" as="sourcePoint" />
            <mxPoint x="145" y="91.19999999999999" as="targetPoint" />
          </mxGeometry>
        </mxCell>
        <mxCell id="-ayLTPassgS5V5fUFNFJ-44" value="" style="endArrow=classic;html=1;rounded=0;flowAnimation=0;" edge="1" parent="-ayLTPassgS5V5fUFNFJ-42">
          <mxGeometry width="50" height="50" relative="1" as="geometry">
            <mxPoint x="181" y="107" as="sourcePoint" />
            <mxPoint x="57" y="250" as="targetPoint" />
          </mxGeometry>
        </mxCell>
        <mxCell id="-ayLTPassgS5V5fUFNFJ-45" value="&lt;font&gt;upload feedback&lt;/font&gt;" style="text;strokeColor=none;align=center;fillColor=none;html=1;verticalAlign=middle;whiteSpace=wrap;rounded=0;fontSize=12;" vertex="1" parent="-ayLTPassgS5V5fUFNFJ-42">
          <mxGeometry x="117" y="10" width="104" height="30" as="geometry" />
        </mxCell>
        <mxCell id="-ayLTPassgS5V5fUFNFJ-46" value="" style="sketch=0;outlineConnect=0;fontColor=#232F3E;gradientColor=none;fillColor=#7AA116;strokeColor=none;dashed=0;verticalLabelPosition=bottom;verticalAlign=top;align=center;html=1;fontSize=12;fontStyle=0;aspect=fixed;pointerEvents=1;shape=mxgraph.aws4.bucket;" vertex="1" parent="-ayLTPassgS5V5fUFNFJ-42">
          <mxGeometry x="394" y="61.999999999999986" width="56.73" height="59" as="geometry" />
        </mxCell>
        <mxCell id="-ayLTPassgS5V5fUFNFJ-47" value="" style="sketch=0;points=[[0,0,0],[0.25,0,0],[0.5,0,0],[0.75,0,0],[1,0,0],[0,1,0],[0.25,1,0],[0.5,1,0],[0.75,1,0],[1,1,0],[0,0.25,0],[0,0.5,0],[0,0.75,0],[1,0.25,0],[1,0.5,0],[1,0.75,0]];outlineConnect=0;fontColor=#232F3E;fillColor=#ED7100;strokeColor=#ffffff;dashed=0;verticalLabelPosition=bottom;verticalAlign=top;align=center;html=1;fontSize=12;fontStyle=0;aspect=fixed;shape=mxgraph.aws4.resourceIcon;resIcon=mxgraph.aws4.lambda;" vertex="1" parent="-ayLTPassgS5V5fUFNFJ-42">
          <mxGeometry x="210" y="64" width="57" height="57" as="geometry" />
        </mxCell>
        <mxCell id="-ayLTPassgS5V5fUFNFJ-48" value="&lt;font&gt;resume&lt;/font&gt;" style="text;strokeColor=none;align=center;fillColor=none;html=1;verticalAlign=middle;whiteSpace=wrap;rounded=0;fontSize=12;" vertex="1" parent="-ayLTPassgS5V5fUFNFJ-42">
          <mxGeometry x="366" y="135" width="104" height="20" as="geometry" />
        </mxCell>
        <mxCell id="-ayLTPassgS5V5fUFNFJ-49" value="" style="endArrow=classic;html=1;rounded=0;flowAnimation=1;exitX=0.422;exitY=0.858;exitDx=0;exitDy=0;exitPerimeter=0;fontSize=12;" edge="1" parent="-ayLTPassgS5V5fUFNFJ-42">
          <mxGeometry width="50" height="50" relative="1" as="geometry">
            <mxPoint x="371.6799999999999" y="103" as="sourcePoint" />
            <mxPoint x="288.00000000000006" y="103.16800000000012" as="targetPoint" />
          </mxGeometry>
        </mxCell>
        <mxCell id="-ayLTPassgS5V5fUFNFJ-50" value="" style="edgeStyle=orthogonalEdgeStyle;html=1;endArrow=block;elbow=vertical;startArrow=none;endFill=1;strokeColor=light-dark(#545B64,#FFFFFF);rounded=0;flowAnimation=0;fontSize=12;" edge="1" parent="-ayLTPassgS5V5fUFNFJ-42">
          <mxGeometry width="100" relative="1" as="geometry">
            <mxPoint x="278" y="92" as="sourcePoint" />
            <mxPoint x="389" y="92" as="targetPoint" />
          </mxGeometry>
        </mxCell>
        <mxCell id="-ayLTPassgS5V5fUFNFJ-51" value="&lt;font style=&quot;font-size: 15px;&quot;&gt;3&lt;/font&gt;" style="text;strokeColor=none;align=center;fillColor=none;html=1;verticalAlign=middle;whiteSpace=wrap;rounded=0;fontSize=12;" vertex="1" parent="-ayLTPassgS5V5fUFNFJ-42">
          <mxGeometry x="318" y="62" width="25" height="29" as="geometry" />
        </mxCell>
        <mxCell id="-ayLTPassgS5V5fUFNFJ-52" value="&lt;font style=&quot;font-size: 15px;&quot;&gt;4&lt;/font&gt;" style="text;strokeColor=none;align=center;fillColor=none;html=1;verticalAlign=middle;whiteSpace=wrap;rounded=0;fontSize=12;" vertex="1" parent="-ayLTPassgS5V5fUFNFJ-42">
          <mxGeometry x="384" y="201" width="25" height="29" as="geometry" />
        </mxCell>
        <mxCell id="-ayLTPassgS5V5fUFNFJ-53" value="&lt;font&gt;S3 event notification&lt;/font&gt;" style="text;strokeColor=none;align=center;fillColor=none;html=1;verticalAlign=middle;whiteSpace=wrap;rounded=0;fontSize=12;" vertex="1" parent="-ayLTPassgS5V5fUFNFJ-42">
          <mxGeometry x="417" y="191" width="81" height="20" as="geometry" />
        </mxCell>
        <mxCell id="-ayLTPassgS5V5fUFNFJ-54" value="" style="edgeStyle=orthogonalEdgeStyle;html=1;endArrow=block;elbow=vertical;startArrow=none;endFill=1;strokeColor=light-dark(#545B64,#FFFFFF);rounded=0;flowAnimation=0;fontSize=12;" edge="1" parent="1">
          <mxGeometry width="100" relative="1" as="geometry">
            <mxPoint x="1000" y="508.2" as="sourcePoint" />
            <mxPoint x="1111" y="508.2" as="targetPoint" />
          </mxGeometry>
        </mxCell>
        <mxCell id="-ayLTPassgS5V5fUFNFJ-55" value="&lt;font style=&quot;font-size: 15px;&quot;&gt;1&lt;/font&gt;" style="text;strokeColor=none;align=center;fillColor=none;html=1;verticalAlign=middle;whiteSpace=wrap;rounded=0;fontSize=12;" vertex="1" parent="1">
          <mxGeometry x="1036" y="483" width="25" height="29" as="geometry" />
        </mxCell>
        <mxCell id="-ayLTPassgS5V5fUFNFJ-56" value="" style="endArrow=classic;html=1;rounded=0;flowAnimation=1;fontSize=12;" edge="1" parent="1">
          <mxGeometry width="50" height="50" relative="1" as="geometry">
            <mxPoint x="1440" y="471" as="sourcePoint" />
            <mxPoint x="963" y="477" as="targetPoint" />
            <Array as="points">
              <mxPoint x="1440" y="454" />
              <mxPoint x="963" y="454" />
            </Array>
          </mxGeometry>
        </mxCell>
      </root>
    </mxGraphModel>
  </diagram>
</mxfile>
